# Blender v2.79 (sub 0) OBJ File: ''
# www.blender.org
o Cube.001_Cube.002
v -2.031698 8.942848 -1.616631
v -2.031698 9.180649 -4.506800
v -2.031698 9.180649 -1.616631
v -2.031698 8.942848 -4.506800
v 1.945297 9.180649 -4.506800
v 1.945297 8.942848 -4.506800
v 1.945297 9.180649 -1.616631
v 1.945297 8.942848 -1.616631
v -2.031698 0.793226 -1.616632
v -2.031698 1.031026 -4.506802
v -2.031698 1.031026 -1.616632
v -2.031698 0.793226 -4.506802
v 1.945297 1.031026 -4.506802
v 1.945297 0.793226 -4.506802
v 1.945297 1.031026 -1.616632
v 1.945297 0.793226 -1.616632
v 1.949033 9.156096 -1.874033
v 1.949033 1.026612 -4.280238
v 1.949033 1.026612 -1.874039
v 1.949033 9.156096 -4.280232
v -1.964213 1.026612 -1.874039
v -1.964213 9.156096 -1.874038
v 1.949033 9.156096 -1.874033
v 1.949033 1.026612 -1.874039
v -0.267902 1.026612 -4.211554
v -0.284327 9.156096 -4.211552
v -0.284323 1.026612 -4.211554
v -0.267902 9.156096 -4.211552
v 0.165567 1.026612 -4.211554
v 0.142608 9.156096 -4.211547
v 0.142608 1.026612 -4.211554
v 0.165567 9.156096 -4.211547
v 1.949033 1.026612 -4.280238
v 1.949033 9.156096 -4.280232
v 0.396425 9.156096 -4.280232
v 0.396430 1.026612 -4.280238
v -0.056660 1.026612 -4.211554
v -0.096223 9.156096 -4.211547
v -0.096223 1.026612 -4.211554
v -0.056660 9.156096 -4.211547
v -0.142502 1.026612 -4.211554
v -0.158923 9.156096 -4.211547
v -0.158923 1.026612 -4.211554
v -0.142502 9.156096 -4.211547
v -0.205202 1.026612 -4.211554
v -0.221623 9.156096 -4.211547
v -0.221623 1.026612 -4.211554
v -0.205202 9.156096 -4.211547
v -0.432865 9.156096 -4.211552
v -0.393302 1.026612 -4.211554
v -0.393307 9.156096 -4.211552
v -0.432865 1.026612 -4.211554
v -0.347027 9.156096 -4.211552
v -0.330602 1.026612 -4.211554
v -0.330602 9.156096 -4.211552
v -0.347027 1.026612 -4.211554
v 0.396430 1.026612 -4.211554
v 0.350329 9.156096 -4.211547
v 0.350329 1.026612 -4.211554
v 0.396425 9.156096 -4.211547
v 0.304049 1.026612 -4.211554
v 0.281085 9.156096 -4.211547
v 0.281085 1.026612 -4.211554
v 0.304049 9.156096 -4.211547
v 0.234810 1.026612 -4.211554
v 0.211846 9.156096 -4.211547
v 0.211846 1.026612 -4.211554
v 0.234810 9.156096 -4.211547
v -0.019012 9.156096 -4.211547
v 0.027089 1.026612 -4.211554
v 0.027089 9.156096 -4.211547
v -0.019012 1.026612 -4.211554
v 0.073369 9.156096 -4.211547
v 0.096328 1.026612 -4.211554
v 0.096328 9.156096 -4.211547
v 0.073369 1.026612 -4.211554
v -0.432865 9.156096 -4.280232
v -0.432865 1.026612 -4.280238
v -0.432865 1.026612 -4.211554
v -0.432865 9.156096 -4.211552
v -0.056660 1.026612 -4.280238
v -0.056660 9.156096 -4.280232
v -0.056660 9.156096 -4.211547
v -0.056660 1.026612 -4.211554
v -0.019012 9.156096 -4.280232
v -0.019012 1.026612 -4.280238
v -0.019012 1.026612 -4.211554
v -0.019012 9.156096 -4.211547
v 0.396430 1.026612 -4.280238
v 0.396425 9.156096 -4.280232
v 0.396425 9.156096 -4.211547
v 0.396430 1.026612 -4.211554
v -0.244765 9.156096 -4.236732
v -0.244765 1.026612 -4.236738
v -0.307465 9.156096 -4.236732
v -0.307465 1.026612 -4.236738
v 0.188709 9.156096 -4.236732
v 0.188709 1.026612 -4.236738
v 0.119466 9.156096 -4.236732
v 0.119470 1.026612 -4.236738
v -0.119360 1.026612 -4.236738
v -0.119365 9.156096 -4.236732
v -0.182065 9.156096 -4.236732
v -0.182065 1.026612 -4.236738
v -0.370165 9.156096 -4.236732
v -0.370165 1.026612 -4.236738
v 0.327186 1.026612 -4.236738
v 0.327186 9.156096 -4.236732
v 0.257948 9.156096 -4.236732
v 0.257948 1.026612 -4.236738
v 0.050227 9.156096 -4.236732
v 0.050227 1.026612 -4.236738
v -0.432865 1.026612 -4.280238
v -0.432865 9.156096 -4.280232
v -1.966058 9.156096 -4.280232
v -1.966058 1.026612 -4.280238
v -1.966058 9.156096 -4.280232
v -1.964213 9.156096 -1.874038
v -1.964213 1.026612 -1.874039
v -1.966058 1.026612 -4.280238
v -0.022382 9.156096 -3.744492
v -0.053290 1.026612 -3.744497
v -0.022382 1.026612 -3.744497
v -0.053290 9.156096 -3.744492
v -0.056660 9.156096 -4.280232
v -0.053290 1.026612 -3.744497
v -0.053290 9.156096 -3.744492
v -0.056660 1.026612 -4.280238
v -0.056660 1.026612 -4.280238
v -0.022382 1.026612 -3.744497
v -0.053290 1.026612 -3.744497
v -0.019012 1.026612 -4.280238
v -0.019012 1.026612 -4.280238
v -0.022382 9.156096 -3.744492
v -0.022382 1.026612 -3.744497
v -0.019012 9.156096 -4.280232
v -0.019012 9.156096 -4.280232
v -0.053290 9.156096 -3.744492
v -0.022382 9.156096 -3.744492
v -0.056660 9.156096 -4.280232
vt 0.000000 0.000000
vt 0.000000 0.000000
vt 0.000000 0.000000
vt 0.000000 0.000000
vt 0.000000 0.000000
vt 0.000000 0.000000
vt 0.000000 0.000000
vt 0.000000 0.000000
vt 0.000000 0.000000
vt 0.000000 0.000000
vt 0.000000 0.000000
vt 0.000000 0.000000
vt 0.000000 0.000000
vt 0.000000 0.000000
vt 0.000000 0.000000
vt 0.000000 0.000000
vt 0.000256 0.665288
vt 0.618899 0.665288
vt 0.618899 0.482179
vt 0.000256 0.482179
vt 0.618899 0.298049
vt 0.000256 0.000256
vt 0.000256 0.298049
vt 0.618899 0.000256
vt 0.905914 0.118920
vt 0.905991 0.113922
vt 0.619497 0.113922
vt 0.619420 0.118920
vt 0.917245 0.036636
vt 0.917321 0.031440
vt 0.619505 0.031440
vt 0.619429 0.036636
vt 0.618898 0.783951
vt 0.000256 0.665799
vt 0.000256 0.783951
vt 0.618898 0.665799
vt 0.905944 0.163918
vt 0.906007 0.158918
vt 0.619513 0.158918
vt 0.619450 0.163918
vt 0.905924 0.148918
vt 0.906002 0.143919
vt 0.619507 0.143920
vt 0.619430 0.148918
vt 0.905919 0.133919
vt 0.905996 0.128921
vt 0.619502 0.128921
vt 0.619425 0.133919
vt 0.619473 0.083923
vt 0.619410 0.088923
vt 0.905904 0.088923
vt 0.905967 0.083923
vt 0.619492 0.098923
vt 0.619415 0.103921
vt 0.905909 0.103921
vt 0.905986 0.098923
vt 0.917289 0.083412
vt 0.917350 0.078215
vt 0.619533 0.078215
vt 0.619472 0.083412
vt 0.917264 0.067820
vt 0.917340 0.062623
vt 0.619524 0.062623
vt 0.619447 0.067820
vt 0.917255 0.052228
vt 0.917331 0.047032
vt 0.619514 0.047032
vt 0.619438 0.052228
vt 0.619471 0.000256
vt 0.619410 0.005452
vt 0.917226 0.005452
vt 0.917288 0.000256
vt 0.619495 0.015848
vt 0.619419 0.021044
vt 0.917236 0.021044
vt 0.917312 0.015848
vt 0.431350 0.992233
vt 0.861724 0.999744
vt 0.861791 0.992233
vt 0.431282 0.999744
vt 0.430704 0.999745
vt 0.000323 0.992233
vt 0.000256 0.999745
vt 0.430771 0.992233
vt 0.000323 0.984209
vt 0.430704 0.991721
vt 0.430771 0.984209
vt 0.000256 0.991722
vt 0.861731 0.991722
vt 0.431350 0.984209
vt 0.431282 0.991722
vt 0.861798 0.984209
vt 0.619461 0.123920
vt 0.905955 0.123920
vt 0.905950 0.108922
vt 0.619456 0.108922
vt 0.619471 0.041834
vt 0.917288 0.041834
vt 0.917279 0.026242
vt 0.619462 0.026242
vt 0.905966 0.153918
vt 0.619471 0.153918
vt 0.905960 0.138919
vt 0.619466 0.138919
vt 0.619451 0.093923
vt 0.905945 0.093923
vt 0.917307 0.073018
vt 0.619490 0.073018
vt 0.917298 0.057426
vt 0.619481 0.057426
vt 0.619452 0.010650
vt 0.917269 0.010650
vt 0.618898 0.901136
vt 0.000256 0.784462
vt 0.000256 0.901136
vt 0.618898 0.784462
vt 0.000256 0.481668
vt 0.618899 0.298560
vt 0.000256 0.298560
vt 0.618899 0.481668
vt 0.619452 0.169468
vt 0.908198 0.169469
vt 0.908156 0.164430
vt 0.619410 0.164429
vt 0.000256 0.942928
vt 0.000256 0.983698
vt 0.618896 0.983698
vt 0.618896 0.942928
vt 0.622275 0.210749
vt 0.622018 0.169980
vt 0.619666 0.169980
vt 0.619410 0.210749
vt 0.618896 0.942417
vt 0.618896 0.901647
vt 0.000256 0.901647
vt 0.000256 0.942417
vt 0.622275 0.252029
vt 0.622018 0.211260
vt 0.619666 0.211260
vt 0.619410 0.252029
vn -1.0000 0.0000 0.0000
vn 0.0000 0.0000 -1.0000
vn 1.0000 0.0000 0.0000
vn 0.0000 -0.0000 1.0000
vn 0.0000 1.0000 0.0000
vn 0.0000 -1.0000 0.0000
vn -0.7363 0.0000 -0.6766
vn -0.7364 0.0000 -0.6766
vn 0.7363 0.0000 -0.6766
vn 0.7364 0.0000 -0.6766
vn -0.7363 -0.0000 -0.6767
vn -1.0000 -0.0000 0.0008
vn 1.0000 0.0000 -0.0063
vn -1.0000 0.0000 -0.0063
s 1
f 1/1/1 3/2/1 2/3/1
f 4/4/2 2/3/2 5/5/2
f 6/6/3 5/5/3 7/7/3
f 8/8/4 7/7/4 3/2/4
f 5/5/5 2/3/5 3/2/5
f 4/4/6 6/6/6 8/8/6
f 9/9/1 11/10/1 10/11/1
f 12/12/2 10/11/2 13/13/2
f 14/14/3 13/13/3 15/15/3
f 16/16/4 15/15/4 11/10/4
f 13/13/5 10/11/5 11/10/5
f 12/12/6 14/14/6 16/16/6
f 17/17/3 19/18/3 18/19/3
f 17/17/3 18/19/3 20/20/3
f 21/21/4 23/22/4 22/23/4
f 23/22/4 21/21/4 24/24/4
f 25/25/2 27/26/2 26/27/2
f 25/25/2 26/27/2 28/28/2
f 29/29/2 31/30/2 30/31/2
f 29/29/2 30/31/2 32/32/2
f 33/33/2 35/34/2 34/35/2
f 35/34/2 33/33/2 36/36/2
f 37/37/2 39/38/2 38/39/2
f 37/37/2 38/39/2 40/40/2
f 41/41/2 43/42/2 42/43/2
f 41/41/2 42/43/2 44/44/2
f 45/45/2 47/46/2 46/47/2
f 45/45/2 46/47/2 48/48/2
f 49/49/2 51/50/2 50/51/2
f 49/49/2 50/51/2 52/52/2
f 53/53/2 55/54/2 54/55/2
f 53/53/2 54/55/2 56/56/2
f 57/57/2 59/58/2 58/59/2
f 57/57/2 58/59/2 60/60/2
f 61/61/2 63/62/2 62/63/2
f 61/61/2 62/63/2 64/64/2
f 65/65/2 67/66/2 66/67/2
f 65/65/2 66/67/2 68/68/2
f 69/69/2 71/70/2 70/71/2
f 69/69/2 70/71/2 72/72/2
f 73/73/2 75/74/2 74/75/2
f 73/73/2 74/75/2 76/76/2
f 77/77/3 79/78/3 78/79/3
f 79/78/3 77/77/3 80/80/3
f 81/81/1 83/82/1 82/83/1
f 83/82/1 81/81/1 84/84/1
f 85/85/3 87/86/3 86/87/3
f 87/86/3 85/85/3 88/88/3
f 89/89/1 91/90/1 90/91/1
f 91/90/1 89/89/1 92/92/1
f 93/93/7 25/25/8 28/28/7
f 25/25/8 93/93/7 94/94/8
f 26/27/9 96/95/9 95/96/9
f 96/95/9 26/27/9 27/26/9
f 97/97/7 29/29/7 32/32/7
f 29/29/7 97/97/7 98/98/7
f 30/31/9 100/99/10 99/100/9
f 100/99/10 30/31/9 31/30/10
f 101/101/10 38/39/9 39/38/10
f 38/39/9 101/101/10 102/102/9
f 102/102/8 41/41/7 44/44/8
f 41/41/7 102/102/8 101/101/7
f 42/43/9 104/103/9 103/104/9
f 104/103/9 42/43/9 43/42/9
f 103/104/8 45/45/8 48/48/8
f 45/45/8 103/104/8 104/103/8
f 46/47/9 94/94/9 93/93/9
f 94/94/9 46/47/9 47/46/9
f 105/105/11 50/51/8 51/50/11
f 50/51/8 105/105/11 106/106/8
f 106/106/10 53/53/9 56/56/10
f 53/53/9 106/106/10 105/105/9
f 54/55/8 95/96/7 96/95/8
f 95/96/7 54/55/8 55/54/7
f 107/107/9 58/59/9 59/58/9
f 58/59/9 107/107/9 108/108/9
f 108/108/8 61/61/8 64/64/8
f 61/61/8 108/108/8 107/107/8
f 62/63/10 110/109/10 109/110/10
f 110/109/10 62/63/10 63/62/10
f 109/110/8 65/65/8 68/68/8
f 65/65/8 109/110/8 110/109/8
f 66/67/10 98/98/10 97/97/10
f 98/98/10 66/67/10 67/66/10
f 111/111/8 70/71/8 71/70/8
f 70/71/8 111/111/8 112/112/8
f 112/112/9 73/73/9 76/76/9
f 73/73/9 112/112/9 111/111/9
f 74/75/7 99/100/8 100/99/7
f 99/100/8 74/75/7 75/74/8
f 113/113/2 115/114/2 114/115/2
f 115/114/2 113/113/2 116/116/2
f 117/117/12 119/118/12 118/119/12
f 119/118/12 117/117/12 120/120/12
f 121/121/2 123/122/2 122/123/2
f 121/121/2 122/123/2 124/124/2
f 125/125/13 127/126/13 126/127/13
f 125/125/13 126/127/13 128/128/13
f 129/129/5 131/130/5 130/131/5
f 129/129/5 130/131/5 132/132/5
f 133/133/14 135/134/14 134/135/14
f 133/133/14 134/135/14 136/136/14
f 137/137/6 139/138/6 138/139/6
f 137/137/6 138/139/6 140/140/6
f 1/1/1 2/3/1 4/4/1
f 4/4/2 5/5/2 6/6/2
f 6/6/3 7/7/3 8/8/3
f 8/8/4 3/2/4 1/1/4
f 5/5/5 3/2/5 7/7/5
f 4/4/6 8/8/6 1/1/6
f 9/9/1 10/11/1 12/12/1
f 12/12/2 13/13/2 14/14/2
f 14/14/3 15/15/3 16/16/3
f 16/16/4 11/10/4 9/9/4
f 13/13/5 11/10/5 15/15/5
f 12/12/6 16/16/6 9/9/6
