# Blender v2.79 (sub 0) OBJ File: ''
# www.blender.org
o Cylinder
v 0.000000 -0.000331 -0.854734
v 0.000000 0.000331 -0.854734
v 0.166750 0.000331 -0.838310
v 0.166750 -0.000331 -0.838310
v 0.327093 0.000331 -0.789672
v 0.327093 -0.000331 -0.789672
v 0.474865 0.000331 -0.710685
v 0.474865 -0.000331 -0.710685
v 0.604388 0.000331 -0.604388
v 0.604388 -0.000331 -0.604388
v 0.710685 0.000331 -0.474865
v 0.710685 -0.000331 -0.474865
v 0.789672 0.000331 -0.327093
v 0.789672 -0.000331 -0.327093
v 0.838310 0.000331 -0.166750
v 0.838310 -0.000331 -0.166750
v 0.854734 0.000331 -0.000000
v 0.854734 -0.000331 -0.000000
v 0.838310 0.000331 0.166750
v 0.838310 -0.000331 0.166750
v 0.789672 0.000331 0.327092
v 0.789672 -0.000331 0.327092
v 0.710685 0.000331 0.474865
v 0.710685 -0.000331 0.474865
v 0.604388 0.000331 0.604388
v 0.604388 -0.000331 0.604388
v 0.474865 0.000331 0.710685
v 0.474865 -0.000331 0.710685
v 0.327093 0.000331 0.789672
v 0.327093 -0.000331 0.789672
v 0.166750 0.000331 0.838310
v 0.166750 -0.000331 0.838310
v 0.000000 0.000331 0.854734
v 0.000000 -0.000331 0.854734
v -0.166750 0.000331 0.838310
v -0.166750 -0.000331 0.838310
v -0.327092 0.000331 0.789672
v -0.327092 -0.000331 0.789672
v -0.474865 0.000331 0.710685
v -0.474865 -0.000331 0.710685
v -0.604388 0.000331 0.604388
v -0.604388 -0.000331 0.604388
v -0.710685 0.000331 0.474865
v -0.710685 -0.000331 0.474865
v -0.789672 0.000331 0.327092
v -0.789672 -0.000331 0.327092
v -0.838310 0.000331 0.166749
v -0.838310 -0.000331 0.166749
v -0.854734 0.000331 -0.000001
v -0.854734 -0.000331 -0.000001
v -0.838310 0.000331 -0.166751
v -0.838310 -0.000331 -0.166751
v -0.789671 0.000331 -0.327093
v -0.789671 -0.000331 -0.327093
v -0.710684 0.000331 -0.474866
v -0.710684 -0.000331 -0.474866
v -0.604388 0.000331 -0.604389
v -0.604388 -0.000331 -0.604389
v -0.474864 0.000331 -0.710686
v -0.474864 -0.000331 -0.710686
v -0.327091 0.000331 -0.789672
v -0.327091 -0.000331 -0.789672
v -0.166749 0.000331 -0.838311
v -0.166749 -0.000331 -0.838311
vt 1.000000 0.000000
vt 0.000000 0.000000
vt 0.000000 1.000000
vt 1.000000 0.000000
vt 0.000000 0.000000
vt 0.000000 1.000000
vt 1.000000 0.000000
vt 0.000000 0.000000
vt 0.000000 1.000000
vt 1.000000 0.000000
vt 0.000000 0.000000
vt 0.000000 1.000000
vt 1.000000 0.000000
vt 0.000000 0.000000
vt 0.000000 1.000000
vt 1.000000 0.000000
vt 0.000000 0.000000
vt 0.000000 1.000000
vt 1.000000 0.000000
vt 0.000000 0.000000
vt 0.000000 1.000000
vt 1.000000 0.000000
vt 0.000000 0.000000
vt 0.000000 1.000000
vt 1.000000 0.000000
vt 0.000000 0.000000
vt 0.000000 1.000000
vt 1.000000 0.000000
vt 0.000000 0.000000
vt 0.000000 1.000000
vt 1.000000 0.000000
vt 0.000000 0.000000
vt 0.000000 1.000000
vt 1.000000 0.000000
vt 0.000000 0.000000
vt 0.000000 1.000000
vt 1.000000 0.000000
vt 0.000000 0.000000
vt 0.000000 1.000000
vt 1.000000 0.000000
vt 0.000000 0.000000
vt 0.000000 1.000000
vt 1.000000 0.000000
vt 0.000000 0.000000
vt 0.000000 1.000000
vt 1.000000 0.000000
vt 0.000000 0.000000
vt 0.000000 1.000000
vt 1.000000 0.000000
vt 0.000000 0.000000
vt 0.000000 1.000000
vt 1.000000 0.000000
vt 0.000000 0.000000
vt 0.000000 1.000000
vt 1.000000 0.000000
vt 0.000000 0.000000
vt 0.000000 1.000000
vt 1.000000 0.000000
vt 0.000000 0.000000
vt 0.000000 1.000000
vt 1.000000 0.000000
vt 0.000000 0.000000
vt 0.000000 1.000000
vt 1.000000 0.000000
vt 0.000000 0.000000
vt 0.000000 1.000000
vt 1.000000 0.000000
vt 0.000000 0.000000
vt 0.000000 1.000000
vt 1.000000 0.000000
vt 0.000000 0.000000
vt 0.000000 1.000000
vt 1.000000 0.000000
vt 0.000000 0.000000
vt 0.000000 1.000000
vt 1.000000 0.000000
vt 0.000000 0.000000
vt 0.000000 1.000000
vt 1.000000 0.000000
vt 0.000000 0.000000
vt 0.000000 1.000000
vt 1.000000 0.000000
vt 0.000000 0.000000
vt 0.000000 1.000000
vt 1.000000 0.000000
vt 0.000000 0.000000
vt 0.000000 1.000000
vt 1.000000 0.000000
vt 0.000000 0.000000
vt 0.000000 1.000000
vt 0.990393 0.597545
vt 0.009607 0.402455
vt 0.597545 0.009607
vt 1.000000 0.000000
vt 0.000000 0.000000
vt 0.000000 1.000000
vt 1.000000 0.000000
vt 0.000000 0.000000
vt 0.000000 1.000000
vt 0.990393 0.597545
vt 0.009607 0.402455
vt 0.597545 0.009607
vt 1.000000 1.000000
vt 1.000000 1.000000
vt 1.000000 1.000000
vt 1.000000 1.000000
vt 1.000000 1.000000
vt 1.000000 1.000000
vt 1.000000 1.000000
vt 1.000000 1.000000
vt 1.000000 1.000000
vt 1.000000 1.000000
vt 1.000000 1.000000
vt 1.000000 1.000000
vt 1.000000 1.000000
vt 1.000000 1.000000
vt 1.000000 1.000000
vt 1.000000 1.000000
vt 1.000000 1.000000
vt 1.000000 1.000000
vt 1.000000 1.000000
vt 1.000000 1.000000
vt 1.000000 1.000000
vt 1.000000 1.000000
vt 1.000000 1.000000
vt 1.000000 1.000000
vt 1.000000 1.000000
vt 1.000000 1.000000
vt 1.000000 1.000000
vt 1.000000 1.000000
vt 1.000000 1.000000
vt 1.000000 1.000000
vt 0.402456 0.990393
vt 0.597545 0.990393
vt 0.500000 1.000000
vt 0.691342 0.961940
vt 0.777785 0.915735
vt 0.915735 0.777785
vt 0.853553 0.853553
vt 0.961940 0.691342
vt 0.990393 0.402455
vt 1.000000 0.500000
vt 0.961940 0.308658
vt 0.915735 0.222215
vt 0.853553 0.146447
vt 0.777785 0.084265
vt 0.691342 0.038060
vt 0.402455 0.009607
vt 0.500000 0.000000
vt 0.222215 0.084265
vt 0.308658 0.038060
vt 0.084265 0.222215
vt 0.146446 0.146447
vt 0.038060 0.308659
vt 0.009607 0.597546
vt 0.000000 0.500000
vt 0.038060 0.691342
vt 0.084266 0.777786
vt 0.222215 0.915735
vt 0.146447 0.853554
vt 0.308659 0.961940
vt 1.000000 1.000000
vt 1.000000 1.000000
vt 0.402456 0.990393
vt 0.597545 0.990393
vt 0.500000 1.000000
vt 0.777785 0.915735
vt 0.691342 0.961940
vt 0.915735 0.777785
vt 0.853553 0.853553
vt 0.961940 0.691342
vt 0.990393 0.402455
vt 1.000000 0.500000
vt 0.961940 0.308658
vt 0.915735 0.222215
vt 0.853553 0.146447
vt 0.777785 0.084265
vt 0.691342 0.038060
vt 0.402455 0.009607
vt 0.500000 0.000000
vt 0.222215 0.084265
vt 0.308658 0.038060
vt 0.084265 0.222215
vt 0.146446 0.146447
vt 0.038060 0.308659
vt 0.009607 0.597546
vt 0.000000 0.500000
vt 0.084266 0.777786
vt 0.038060 0.691342
vt 0.146447 0.853554
vt 0.222215 0.915735
vt 0.308659 0.961940
vn 0.0980 0.0000 -0.9952
vn 0.2903 0.0000 -0.9569
vn 0.4714 0.0000 -0.8819
vn 0.6344 0.0000 -0.7730
vn 0.7730 0.0000 -0.6344
vn 0.8819 0.0000 -0.4714
vn 0.9569 0.0000 -0.2903
vn 0.9952 0.0000 -0.0980
vn 0.9952 0.0000 0.0980
vn 0.9569 0.0000 0.2903
vn 0.8819 0.0000 0.4714
vn 0.7730 0.0000 0.6344
vn 0.6344 0.0000 0.7730
vn 0.4714 0.0000 0.8819
vn 0.2903 0.0000 0.9569
vn 0.0980 0.0000 0.9952
vn -0.0980 0.0000 0.9952
vn -0.2903 0.0000 0.9569
vn -0.4714 0.0000 0.8819
vn -0.6344 0.0000 0.7730
vn -0.7730 0.0000 0.6344
vn -0.8819 0.0000 0.4714
vn -0.9569 0.0000 0.2903
vn -0.9952 -0.0000 0.0980
vn -0.9952 0.0000 -0.0980
vn -0.9569 0.0000 -0.2903
vn -0.8819 0.0000 -0.4714
vn -0.7730 0.0000 -0.6344
vn -0.6344 0.0000 -0.7730
vn -0.4714 0.0000 -0.8819
vn 0.0000 -1.0000 -0.0000
vn -0.2903 0.0000 -0.9569
vn -0.0980 0.0000 -0.9952
vn -0.0000 1.0000 0.0000
s 1
f 1/1/1 2/2/1 3/3/1
f 4/4/2 3/5/2 5/6/2
f 6/7/3 5/8/3 7/9/3
f 8/10/4 7/11/4 9/12/4
f 10/13/5 9/14/5 11/15/5
f 12/16/6 11/17/6 13/18/6
f 14/19/7 13/20/7 15/21/7
f 16/22/8 15/23/8 17/24/8
f 18/25/9 17/26/9 19/27/9
f 20/28/10 19/29/10 21/30/10
f 22/31/11 21/32/11 23/33/11
f 24/34/12 23/35/12 25/36/12
f 26/37/13 25/38/13 27/39/13
f 28/40/14 27/41/14 29/42/14
f 30/43/15 29/44/15 31/45/15
f 32/46/16 31/47/16 33/48/16
f 34/49/17 33/50/17 35/51/17
f 36/52/18 35/53/18 37/54/18
f 38/55/19 37/56/19 39/57/19
f 40/58/20 39/59/20 41/60/20
f 42/61/21 41/62/21 43/63/21
f 44/64/22 43/65/22 45/66/22
f 46/67/23 45/68/23 47/69/23
f 48/70/24 47/71/24 49/72/24
f 50/73/25 49/74/25 51/75/25
f 52/76/26 51/77/26 53/78/26
f 54/79/27 53/80/27 55/81/27
f 56/82/28 55/83/28 57/84/28
f 58/85/29 57/86/29 59/87/29
f 60/88/30 59/89/30 61/90/30
f 54/91/31 22/92/31 38/93/31
f 62/94/32 61/95/32 63/96/32
f 64/97/33 63/98/33 2/99/33
f 15/100/34 47/101/34 31/102/34
f 1/1/1 3/3/1 4/103/1
f 4/4/2 5/6/2 6/104/2
f 6/7/3 7/9/3 8/105/3
f 8/10/4 9/12/4 10/106/4
f 10/13/5 11/15/5 12/107/5
f 12/16/6 13/18/6 14/108/6
f 14/19/7 15/21/7 16/109/7
f 16/22/8 17/24/8 18/110/8
f 18/25/9 19/27/9 20/111/9
f 20/28/10 21/30/10 22/112/10
f 22/31/11 23/33/11 24/113/11
f 24/34/12 25/36/12 26/114/12
f 26/37/13 27/39/13 28/115/13
f 28/40/14 29/42/14 30/116/14
f 30/43/15 31/45/15 32/117/15
f 32/46/16 33/48/16 34/118/16
f 34/49/17 35/51/17 36/119/17
f 36/52/18 37/54/18 38/120/18
f 38/55/19 39/57/19 40/121/19
f 40/58/20 41/60/20 42/122/20
f 42/61/21 43/63/21 44/123/21
f 44/64/22 45/66/22 46/124/22
f 46/67/23 47/69/23 48/125/23
f 48/70/24 49/72/24 50/126/24
f 50/73/25 51/75/25 52/127/25
f 52/76/26 53/78/26 54/128/26
f 54/79/27 55/81/27 56/129/27
f 56/82/28 57/84/28 58/130/28
f 58/85/29 59/87/29 60/131/29
f 60/88/30 61/90/30 62/132/30
f 6/133/31 1/134/31 4/135/31
f 1/134/31 6/133/31 64/136/31
f 64/136/31 6/133/31 62/137/31
f 62/137/31 58/138/31 60/139/31
f 58/138/31 54/91/31 56/140/31
f 54/91/31 50/141/31 52/142/31
f 50/141/31 54/91/31 48/143/31
f 48/143/31 54/91/31 46/144/31
f 46/144/31 38/93/31 44/145/31
f 44/145/31 38/93/31 42/146/31
f 42/146/31 38/93/31 40/147/31
f 38/93/31 34/148/31 36/149/31
f 34/148/31 30/150/31 32/151/31
f 30/150/31 26/152/31 28/153/31
f 26/152/31 22/92/31 24/154/31
f 22/92/31 18/155/31 20/156/31
f 18/155/31 22/92/31 16/157/31
f 16/157/31 22/92/31 14/158/31
f 14/158/31 10/159/31 12/160/31
f 10/159/31 6/133/31 8/161/31
f 62/137/31 6/133/31 58/138/31
f 58/138/31 6/133/31 54/91/31
f 38/93/31 22/92/31 34/148/31
f 34/148/31 22/92/31 30/150/31
f 30/150/31 22/92/31 26/152/31
f 14/158/31 22/92/31 10/159/31
f 10/159/31 22/92/31 6/133/31
f 54/91/31 38/93/31 46/144/31
f 6/133/31 22/92/31 54/91/31
f 62/94/32 63/96/32 64/162/32
f 64/97/33 2/99/33 1/163/33
f 63/164/34 3/165/34 2/166/34
f 3/165/34 7/167/34 5/168/34
f 7/167/34 11/169/34 9/170/34
f 11/169/34 7/167/34 13/171/34
f 13/171/34 7/167/34 15/100/34
f 15/100/34 19/172/34 17/173/34
f 19/172/34 15/100/34 21/174/34
f 21/174/34 15/100/34 23/175/34
f 23/175/34 31/102/34 25/176/34
f 25/176/34 31/102/34 27/177/34
f 27/177/34 31/102/34 29/178/34
f 31/102/34 35/179/34 33/180/34
f 35/179/34 39/181/34 37/182/34
f 39/181/34 43/183/34 41/184/34
f 43/183/34 47/101/34 45/185/34
f 47/101/34 51/186/34 49/187/34
f 51/186/34 55/188/34 53/189/34
f 55/188/34 63/164/34 57/190/34
f 57/190/34 63/164/34 59/191/34
f 59/191/34 63/164/34 61/192/34
f 63/164/34 7/167/34 3/165/34
f 31/102/34 47/101/34 35/179/34
f 35/179/34 47/101/34 39/181/34
f 39/181/34 47/101/34 43/183/34
f 47/101/34 63/164/34 51/186/34
f 51/186/34 63/164/34 55/188/34
f 63/164/34 15/100/34 7/167/34
f 15/100/34 31/102/34 23/175/34
f 63/164/34 47/101/34 15/100/34
