# Blender v2.79 (sub 0) OBJ File: ''
# www.blender.org
o Cube.001
v 0.036117 -0.312966 0.352990
v -0.031437 -0.312966 0.002255
v 0.036117 -0.312966 0.002255
v -0.031437 0.296024 0.002255
v 0.036117 0.296024 0.352990
v 0.036117 0.296024 0.002255
v -0.031437 -0.312966 0.352990
v -0.031437 0.296024 0.352990
vt 0.697391 0.302609
vt 0.302609 0.697391
vt 0.302609 0.302609
vt 0.697391 0.302609
vt 0.302609 0.697391
vt 0.302609 0.302609
vt 0.697391 0.302609
vt 0.302609 0.697391
vt 0.697391 0.302609
vt 0.302609 0.697391
vt 0.302609 0.302609
vt 0.302609 0.302609
vt 0.697391 0.697391
vt 0.697391 0.302609
vt 0.302609 0.697391
vt 0.697391 0.697391
vt 0.697391 0.697391
vt 0.697391 0.697391
vt 0.697391 0.302609
vt 0.697391 0.697391
vn 0.0000 -1.0000 -0.0000
vn 0.0000 1.0000 0.0000
vn 1.0000 -0.0000 0.0000
vn 0.0000 -0.0000 1.0000
vn -1.0000 -0.0000 0.0000
vn 0.0000 0.0000 -1.0000
s 1
f 1/1/1 2/2/1 3/3/1
f 4/4/2 5/5/2 6/6/2
f 6/7/3 1/8/3 3/3/3
f 5/9/4 7/10/4 1/11/4
f 7/12/5 4/13/5 2/2/5
f 3/14/6 4/15/6 6/6/6
f 1/1/1 7/16/1 2/2/1
f 4/4/2 8/17/2 5/5/2
f 6/7/3 5/18/3 1/8/3
f 5/9/4 8/17/4 7/10/4
f 7/12/5 8/19/5 4/13/5
f 3/14/6 2/20/6 4/15/6
