# Blender v2.79 (sub 0) OBJ File: 'minindicator.blend'
# www.blender.org
o Cube.003
v 0.000000 -0.009063 -0.012988
v 0.005430 -0.006798 -0.004001
v 0.000000 -0.009063 -0.004001
v 0.004022 -0.005036 0.000231
v 0.000000 -0.006798 0.001711
v -0.004022 -0.005036 0.000231
v -0.005430 -0.006798 -0.004001
v 0.005430 0.006798 -0.004001
v 0.000000 0.009063 -0.012988
v 0.000000 0.009063 -0.004001
v -0.005430 0.006798 -0.004001
v -0.004022 0.005036 0.000231
v 0.000000 0.006798 0.001712
v 0.004022 0.005036 0.000231
v 0.007239 0.000000 -0.012988
v 0.007239 0.000000 -0.004001
v 0.005430 -0.000000 0.001712
v 0.000000 -0.000000 0.003615
v -0.005430 -0.000000 0.001711
v -0.005430 -0.006798 -0.446427
v -0.007239 0.000000 -0.136693
v -0.007239 0.000000 -0.446427
v -0.005430 0.006799 -0.136693
v -0.005430 0.006799 -0.446427
v -0.004022 0.005036 -0.673435
v -0.005430 0.000000 -0.752887
v -0.004022 -0.005035 -0.673435
v 0.000000 0.000000 -0.855040
v 0.004022 0.005036 -0.673435
v 0.005430 0.000000 -0.752887
v 0.004022 -0.005035 -0.673435
v 0.000000 -0.006798 -0.752887
v 0.000000 0.006799 -0.752887
v -0.007239 0.000000 -0.004001
v -0.007239 0.000000 -0.012989
v 0.005430 -0.006798 -0.024716
v 0.007239 0.000000 -0.136693
v 0.007239 0.000000 -0.024716
v 0.005430 0.006798 -0.024716
v 0.000000 0.009063 -0.136693
v 0.000000 0.009063 -0.024716
v -0.005430 0.006798 -0.024716
v 0.005430 0.006798 -0.012988
v 0.000000 -0.009065 -0.136693
v 0.000000 -0.009063 -0.024716
v -0.005430 -0.006798 -0.024716
v 0.000000 -0.009065 -0.446427
v 0.005430 -0.006798 -0.446427
v 0.000000 0.009064 -0.446427
v 0.005430 0.006799 -0.136693
v 0.005430 0.006799 -0.446427
v 0.007239 0.000000 -0.446427
v 0.005430 -0.006798 -0.136693
v -0.007239 0.000000 -0.024716
v 0.005430 -0.006798 -0.012988
v -0.005430 -0.006798 -0.012988
v -0.005430 0.006798 -0.012989
v -0.005430 -0.006798 -0.136693
vt 0.000000 0.500000
vt 0.500000 0.000000
vt 0.500000 0.500000
vt 1.000000 0.000000
vt 1.000000 0.500000
vt 1.000000 1.000000
vt 0.500000 1.000000
vt 0.000000 0.500000
vt 0.500000 0.000000
vt 0.500000 0.500000
vt 1.000000 0.500000
vt 1.000000 1.000000
vt 0.500000 1.000000
vt 0.000000 1.000000
vt 0.000000 0.500000
vt 0.500000 0.000000
vt 0.500000 0.500000
vt 1.000000 0.500000
vt 1.000000 1.000000
vt 0.500000 1.000000
vt 0.000000 1.000000
vt 0.500000 0.500000
vt 0.000000 0.000000
vt 0.500000 0.000000
vt 1.000000 0.000000
vt 1.000000 0.500000
vt 0.500000 1.000000
vt 0.000000 1.000000
vt 0.000000 0.500000
vt 0.000000 0.500000
vt 0.500000 0.000000
vt 0.500000 0.500000
vt 1.000000 0.000000
vt 1.000000 0.500000
vt 1.000000 1.000000
vt 0.500000 1.000000
vt 0.000000 1.000000
vt 0.500000 0.500000
vt 0.000000 0.000000
vt 0.500000 0.000000
vt 1.000000 0.000000
vt 1.000000 0.500000
vt 1.000000 1.000000
vt 0.000000 1.000000
vt 0.000000 0.500000
vt 0.500000 0.500000
vt 0.000000 0.000000
vt 0.500000 0.000000
vt 1.000000 0.000000
vt 0.500000 1.000000
vt 0.000000 0.500000
vt 0.000000 0.500000
vt 0.500000 0.000000
vt 0.500000 0.500000
vt 1.000000 0.500000
vt 0.500000 1.000000
vt 0.000000 0.500000
vt 0.500000 0.000000
vt 0.500000 0.500000
vt 1.000000 0.500000
vt 0.500000 1.000000
vt 0.000000 1.000000
vt 0.000000 0.500000
vt 0.500000 0.000000
vt 0.500000 0.500000
vt 1.000000 0.500000
vt 0.500000 1.000000
vt 0.500000 0.500000
vt 0.000000 0.000000
vt 0.500000 0.000000
vt 1.000000 0.500000
vt 0.500000 1.000000
vt 0.000000 0.500000
vt 0.500000 0.500000
vt 0.500000 0.000000
vt 1.000000 0.000000
vt 1.000000 1.000000
vt 0.500000 1.000000
vt 0.000000 1.000000
vt 0.000000 0.500000
vt 0.500000 0.500000
vt 1.000000 0.000000
vt 1.000000 0.500000
vt 0.500000 1.000000
vt 0.000000 1.000000
vt 0.000000 0.500000
vt 0.000000 0.500000
vt 0.500000 0.000000
vt 0.500000 0.500000
vt 0.500000 1.000000
vt 0.000000 0.000000
vt 0.000000 1.000000
vt 0.000000 0.000000
vt 1.000000 0.000000
vt 1.000000 0.000000
vt 0.000000 0.000000
vt 1.000000 1.000000
vt 0.000000 0.000000
vt 1.000000 0.000000
vt 1.000000 1.000000
vt 0.000000 1.000000
vt 0.000000 0.000000
vt 1.000000 0.000000
vt 1.000000 1.000000
vt 0.000000 1.000000
vt 1.000000 0.000000
vt 1.000000 1.000000
vt 1.000000 1.000000
vt 0.000000 0.000000
vn 0.3851 -0.9229 -0.0000
vn 0.4771 -0.8170 0.3240
vn -0.3427 -0.8214 0.4559
vn -0.3851 -0.9229 -0.0000
vn 0.3851 0.9229 0.0000
vn -0.3851 0.9229 0.0000
vn -0.4771 0.8169 0.3240
vn 0.3427 0.8214 0.4559
vn 0.9663 -0.2573 -0.0000
vn 0.9663 0.2573 0.0000
vn 0.8983 0.3348 0.2846
vn 0.8882 -0.2365 0.3939
vn 0.3103 -0.3470 0.8851
vn 0.4274 0.2438 0.8706
vn -0.3104 0.3469 0.8851
vn -0.4273 -0.2439 0.8706
vn -0.9663 -0.2572 -0.0107
vn -0.9663 -0.2573 -0.0000
vn -0.9663 -0.2573 -0.0040
vn -0.9662 0.2574 -0.0106
vn -0.9663 0.2572 0.0000
vn -0.9663 0.2572 -0.0040
vn -0.9370 0.3492 -0.0055
vn -0.9663 -0.2573 -0.0080
vn 0.6663 0.7449 -0.0354
vn 0.8681 -0.4953 -0.0330
vn -0.6662 -0.7449 -0.0354
vn -0.8681 0.4952 -0.0330
vn -0.8983 -0.3347 0.2846
vn -0.8882 0.2365 0.3939
vn -0.9663 0.2573 0.0000
vn 0.9663 0.2572 0.0000
vn 0.3850 0.9229 0.0000
vn -0.3850 0.9229 0.0000
vn 0.3853 -0.9228 0.0000
vn -0.3853 -0.9228 0.0000
vn 0.3853 -0.9228 -0.0047
vn 0.3853 -0.9228 -0.0096
vn 0.3852 -0.9228 -0.0080
vn -0.3852 -0.9228 -0.0080
vn -0.3853 -0.9228 -0.0047
vn -0.5045 -0.8634 -0.0064
vn 0.5044 0.8634 -0.0064
vn -0.3852 0.9228 -0.0080
vn -0.3849 0.9229 -0.0096
vn -0.3850 0.9229 -0.0048
vn 0.3852 0.9228 -0.0079
vn 0.3850 0.9229 -0.0048
vn 0.9370 -0.3493 -0.0055
vn 0.9663 0.2572 -0.0040
vn 0.9663 0.2572 -0.0080
vn 0.9663 0.2572 -0.0107
vn 0.9662 -0.2574 -0.0106
vn 0.9663 -0.2573 -0.0040
vn 0.3427 -0.8214 0.4559
vn -0.4771 -0.8170 0.3240
vn -0.3427 0.8214 0.4559
vn 0.4771 0.8169 0.3240
vn 0.8882 0.2365 0.3939
vn 0.8983 -0.3348 0.2846
vn 0.4273 -0.2439 0.8706
vn 0.3103 0.3470 0.8851
vn -0.4274 0.2438 0.8706
vn -0.3104 -0.3469 0.8851
vn -0.9663 0.2572 -0.0080
vn -0.9370 -0.3493 -0.0055
vn 0.8681 0.4952 -0.0330
vn 0.6662 -0.7449 -0.0354
vn -0.8681 -0.4953 -0.0330
vn -0.6663 0.7449 -0.0354
vn -0.8882 -0.2365 0.3939
vn -0.8983 0.3347 0.2846
vn 0.5045 -0.8634 -0.0064
vn -0.3853 -0.9228 -0.0096
vn 0.3849 0.9229 -0.0096
vn -0.5044 0.8634 -0.0064
vn 0.9663 -0.2573 -0.0080
vn 0.9370 0.3492 -0.0055
s 1
f 1/1/1 2/2/1 3/3/1
f 3/3/2 4/4/2 5/5/2
f 3/3/3 6/6/3 7/7/3
f 7/7/4 1/1/4 3/3/4
f 8/8/5 9/9/5 10/10/5
f 9/9/6 11/11/6 10/10/6
f 10/10/7 12/12/7 13/13/7
f 10/10/8 14/14/8 8/8/8
f 2/15/9 15/16/9 16/17/9
f 15/16/10 8/18/10 16/17/10
f 16/17/11 14/19/11 17/20/11
f 16/17/12 4/21/12 2/15/12
f 18/22/13 4/23/13 17/24/13
f 18/22/14 14/25/14 13/26/14
f 18/22/15 12/12/15 19/27/15
f 18/22/16 6/28/16 5/29/16
f 20/30/17 21/31/18 22/32/19
f 22/32/20 23/33/21 24/34/22
f 22/32/23 25/35/23 26/36/23
f 22/32/19 27/37/24 20/30/17
f 28/38/25 29/39/25 30/40/25
f 28/38/26 31/41/26 32/42/26
f 28/38/27 27/43/27 26/36/27
f 28/38/28 25/44/28 33/45/28
f 34/46/29 6/47/29 19/48/29
f 34/46/30 12/49/30 11/11/30
f 11/11/31 35/50/31 34/46/31
f 35/50/18 7/51/18 34/46/18
f 36/52/9 37/53/9 38/54/9
f 37/53/32 39/55/10 38/54/10
f 39/55/10 15/56/10 38/54/10
f 15/56/9 36/52/9 38/54/9
f 39/57/5 40/58/33 41/59/5
f 40/58/34 42/60/6 41/59/6
f 42/60/6 9/61/6 41/59/6
f 41/59/5 43/62/5 39/57/5
f 44/63/35 36/64/1 45/65/1
f 36/64/1 1/66/1 45/65/1
f 1/66/4 46/67/4 45/65/4
f 46/67/4 44/63/36 45/65/4
f 47/68/37 31/69/38 48/70/39
f 48/70/39 44/71/35 47/68/37
f 44/71/36 20/72/40 47/68/41
f 47/68/42 27/37/42 32/73/42
f 49/74/43 29/39/43 33/75/43
f 49/74/44 25/76/45 24/34/46
f 49/74/44 23/77/34 40/78/34
f 49/74/47 50/79/33 51/80/48
f 52/81/49 31/69/49 30/40/49
f 52/81/50 29/82/51 51/83/52
f 51/83/52 37/84/32 52/81/50
f 52/81/53 53/85/9 48/86/54
f 46/87/18 35/88/18 54/89/18
f 35/88/31 42/60/31 54/89/31
f 42/60/31 21/90/21 54/89/31
f 21/90/18 46/87/18 54/89/18
f 1/1/1 55/91/1 2/2/1
f 3/3/55 2/2/55 4/4/55
f 3/3/56 5/5/56 6/6/56
f 7/7/4 56/92/4 1/1/4
f 8/8/5 43/93/5 9/9/5
f 9/9/6 57/94/6 11/11/6
f 10/10/57 11/11/57 12/12/57
f 10/10/58 13/13/58 14/14/58
f 2/15/9 55/91/9 15/16/9
f 15/16/10 43/95/10 8/18/10
f 16/17/59 8/18/59 14/19/59
f 16/17/60 17/20/60 4/21/60
f 18/22/61 5/29/61 4/23/61
f 18/22/62 17/24/62 14/25/62
f 18/22/63 13/26/63 12/12/63
f 18/22/64 19/27/64 6/28/64
f 20/30/17 58/96/18 21/31/18
f 22/32/20 21/31/21 23/33/21
f 22/32/20 24/34/22 25/35/65
f 22/32/66 26/36/66 27/37/66
f 28/38/67 33/45/67 29/39/67
f 28/38/68 30/40/68 31/41/68
f 28/38/69 32/42/69 27/43/69
f 28/38/70 26/36/70 25/44/70
f 34/46/71 7/51/71 6/47/71
f 34/46/72 19/48/72 12/49/72
f 11/11/31 57/97/31 35/50/31
f 35/50/18 56/92/18 7/51/18
f 36/52/9 53/98/9 37/53/9
f 37/53/32 50/99/32 39/55/10
f 39/55/10 43/100/10 15/56/10
f 15/56/9 55/101/9 36/52/9
f 39/57/5 50/102/33 40/58/33
f 40/58/34 23/33/34 42/60/6
f 42/60/6 57/97/6 9/61/6
f 41/59/5 9/61/5 43/62/5
f 44/63/35 53/98/35 36/64/1
f 36/64/1 55/103/1 1/66/1
f 1/66/4 56/104/4 46/67/4
f 46/67/4 58/105/36 44/63/36
f 47/68/73 32/73/73 31/69/73
f 48/70/39 53/106/35 44/71/35
f 44/71/36 58/107/36 20/72/40
f 47/68/41 20/72/40 27/37/74
f 49/74/47 51/80/48 29/39/75
f 49/74/76 33/75/76 25/76/76
f 49/74/44 24/34/46 23/77/34
f 49/74/47 40/78/33 50/79/33
f 52/81/53 48/86/54 31/69/77
f 52/81/78 30/40/78 29/82/78
f 51/83/52 50/108/32 37/84/32
f 52/81/53 37/84/9 53/85/9
f 46/87/18 56/109/18 35/88/18
f 35/88/31 57/94/31 42/60/31
f 42/60/31 23/77/21 21/90/21
f 21/90/18 58/105/18 46/87/18
